# xmcd CD database file
#
# Track frame offsets:
#	150
#	41802
#	75362
#	121332
#	163087
#
# Disc length: 2714 seconds
#
# Revision: 0
# Processed by: cddbd v1.5PL3 Copyright (c) Steve Scherf et al.
# Submitted via: CDex 1.51
#
DISCID=350a9805
DTITLE=Taylor's Free Universe - 9 Eleven
DYEAR=2004
DGENRE=Jazz
TTITLE0=Phantom Power
TTITLE1=A Serious Offer
TTITLE2=Free-Bop
TTITLE3=Marion Crane
TTITLE4=Sindal Mornings
EXTD=YEAR: 2004
EXTT0=
EXTT1=
EXTT2=
EXTT3=
EXTT4=
PLAYORDER=
